<svg width="25" height="24" viewBox="0 0 25 24" fill="none" xmlns="http://www.w3.org/2000/svg">
<path d="M12.1448 23.1429C9.63382 20.3784 6.22849 18.5877 2.5277 18.0858C2.10647 18.0392 1.71743 17.8382 1.43567 17.5216C1.15392 17.205 0.999414 16.7953 1.00198 16.3715V2.5715C1.00197 2.32389 1.05559 2.07921 1.15917 1.8543C1.26275 1.62939 1.41382 1.42959 1.60198 1.26864C1.78684 1.11062 2.0032 0.99374 2.2367 0.92576C2.47019 0.85778 2.71548 0.840258 2.95627 0.874358C6.49506 1.46168 9.73236 3.22529 12.1448 5.88007V23.1429Z" stroke="#9197B3" stroke-width="1.5" stroke-linecap="round" stroke-linejoin="round"/>
<path d="M12.1445 23.1429C14.6556 20.3784 18.0609 18.5877 21.7617 18.0858C22.1829 18.0392 22.5719 17.8382 22.8537 17.5216C23.1355 17.205 23.29 16.7953 23.2874 16.3715V2.5715C23.2874 2.32389 23.2338 2.07921 23.1302 1.8543C23.0266 1.62939 22.8756 1.42959 22.6874 1.26864C22.5025 1.11062 22.2862 0.99374 22.0527 0.92576C21.8192 0.85778 21.5739 0.840258 21.3331 0.874358C17.7943 1.46168 14.557 3.22529 12.1445 5.88007V23.1429Z" stroke="#9197B3" stroke-width="1.5" stroke-linecap="round" stroke-linejoin="round"/>
</svg>
