<svg width="25" height="24" viewBox="0 0 25 24" fill="none" xmlns="http://www.w3.org/2000/svg">
<path d="M15.7506 22.7498H9.75063C8.43063 22.7498 7.33063 22.6198 6.40063 22.3398C6.06063 22.2398 5.84063 21.9098 5.86063 21.5598C6.11063 18.5698 9.14063 16.2197 12.7506 16.2197C16.3606 16.2197 19.3806 18.5598 19.6406 21.5598C19.6706 21.9198 19.4506 22.2398 19.1006 22.3398C18.1706 22.6198 17.0706 22.7498 15.7506 22.7498ZM7.47063 21.0598C8.13063 21.1898 8.88063 21.2498 9.75063 21.2498H15.7506C16.6206 21.2498 17.3706 21.1898 18.0306 21.0598C17.5006 19.1398 15.3106 17.7197 12.7506 17.7197C10.1906 17.7197 8.00063 19.1398 7.47063 21.0598Z" fill="#9197B3"/>
<path d="M15.75 2H9.75C4.75 2 2.75 4 2.75 9V15C2.75 18.78 3.89 20.85 6.61 21.62C6.83 19.02 9.5 16.97 12.75 16.97C16 16.97 18.67 19.02 18.89 21.62C21.61 20.85 22.75 18.78 22.75 15V9C22.75 4 20.75 2 15.75 2ZM12.75 14.17C10.77 14.17 9.17 12.56 9.17 10.58C9.17 8.60002 10.77 7 12.75 7C14.73 7 16.33 8.60002 16.33 10.58C16.33 12.56 14.73 14.17 12.75 14.17Z" stroke="#9197B3" stroke-width="1.5" stroke-linecap="round" stroke-linejoin="round"/>
<path d="M12.7499 14.92C10.3599 14.92 8.41992 12.97 8.41992 10.58C8.41992 8.19002 10.3599 6.25 12.7499 6.25C15.1399 6.25 17.0799 8.19002 17.0799 10.58C17.0799 12.97 15.1399 14.92 12.7499 14.92ZM12.7499 7.75C11.1899 7.75 9.91992 9.02002 9.91992 10.58C9.91992 12.15 11.1899 13.42 12.7499 13.42C14.3099 13.42 15.5799 12.15 15.5799 10.58C15.5799 9.02002 14.3099 7.75 12.7499 7.75Z" fill="#9197B3"/>
</svg>
