<svg width="18" height="19" viewBox="0 0 18 19" fill="none" xmlns="http://www.w3.org/2000/svg">
<path fill-rule="evenodd" clip-rule="evenodd" d="M3.92308 10.6538C7.67908 10.6538 7.84615 11.9277 7.84615 14.5769C7.84615 15.9043 7.84615 16.8486 7.28862 17.54C6.64708 18.3366 5.47938 18.5 3.92308 18.5C2.36677 18.5 1.19908 18.3366 0.557538 17.54C0 16.8486 0 15.9052 0 14.6L0.692308 14.5769H0C0 11.9277 0.167077 10.6538 3.92308 10.6538ZM14.0769 10.6538C17.8329 10.6538 18 11.9277 18 14.5769C18 15.9043 18 16.8486 17.4425 17.54C16.8009 18.3366 15.6332 18.5 14.0769 18.5C12.5206 18.5 11.3529 18.3366 10.7114 17.54C10.1538 16.8486 10.1538 15.9052 10.1538 14.6L10.8462 14.5769H10.1538C10.1538 11.9277 10.3209 10.6538 14.0769 10.6538ZM4.11338 12.0389L3.92308 12.0385C1.51479 12.0385 1.39129 12.2113 1.38496 14.2327L1.38534 15.0202C1.38972 15.8241 1.42035 16.4049 1.63477 16.6723C1.87938 16.9751 2.60585 17.1154 3.92308 17.1154C5.24031 17.1154 5.96677 16.9742 6.21138 16.6714C6.46154 16.3603 6.46154 15.6218 6.46154 14.5991C6.46154 12.2912 6.46154 12.0497 4.11338 12.0389ZM14.2672 12.0389L14.0769 12.0385C11.6686 12.0385 11.5451 12.2113 11.5388 14.2327L11.5392 15.0202C11.5436 15.8241 11.5742 16.4049 11.7886 16.6723C12.0332 16.9751 12.7597 17.1154 14.0769 17.1154C15.3942 17.1154 16.1206 16.9742 16.3652 16.6714C16.6154 16.3603 16.6154 15.6218 16.6154 14.5991C16.6154 12.2912 16.6154 12.0497 14.2672 12.0389ZM3.92308 0.5C7.67908 0.5 7.84615 1.77385 7.84615 4.42308C7.84615 5.75046 7.84615 6.69477 7.28862 7.38615C6.64708 8.18277 5.47938 8.34615 3.92308 8.34615C2.36677 8.34615 1.19908 8.18277 0.557538 7.38615C0 6.69477 0 5.75138 0 4.44615L0.692308 4.42308H0C0 1.77385 0.167077 0.5 3.92308 0.5ZM14.0769 0.5C17.8329 0.5 18 1.77385 18 4.42308C18 5.75046 18 6.69477 17.4425 7.38615C16.8009 8.18277 15.6332 8.34615 14.0769 8.34615C12.5206 8.34615 11.3529 8.18277 10.7114 7.38615C10.1538 6.69477 10.1538 5.75138 10.1538 4.44615L10.8462 4.42308H10.1538C10.1538 1.77385 10.3209 0.5 14.0769 0.5ZM4.11338 1.88503L3.92308 1.88462C1.51479 1.88462 1.39129 2.05743 1.38496 4.07882L1.38534 4.86632C1.38972 5.67029 1.42035 6.25103 1.63477 6.51846C1.87938 6.82123 2.60585 6.96154 3.92308 6.96154C5.24031 6.96154 5.96677 6.82031 6.21138 6.51754C6.46154 6.20646 6.46154 5.468 6.46154 4.44523C6.46154 2.13735 6.46154 1.89589 4.11338 1.88503ZM14.2672 1.88503L14.0769 1.88462C11.6686 1.88462 11.5451 2.05743 11.5388 4.07882L11.5392 4.86632C11.5436 5.67029 11.5742 6.25103 11.7886 6.51846C12.0332 6.82123 12.7597 6.96154 14.0769 6.96154C15.3942 6.96154 16.1206 6.82031 16.3652 6.51754C16.6154 6.20646 16.6154 5.468 16.6154 4.44523C16.6154 2.13735 16.6154 1.89589 14.2672 1.88503Z" fill="black"/>
</svg>
