<svg width="25" height="23" viewBox="0 0 25 23" fill="none" xmlns="http://www.w3.org/2000/svg">
<path d="M9.44699 9.28557C11.5772 9.28557 13.3041 7.55867 13.3041 5.42843C13.3041 3.29819 11.5772 1.57129 9.44699 1.57129C7.31675 1.57129 5.58984 3.29819 5.58984 5.42843C5.58984 7.55867 7.31675 9.28557 9.44699 9.28557Z" stroke="#9197B3" stroke-width="1.5" stroke-linecap="round" stroke-linejoin="round"/>
<path d="M17.161 22.1429H1.73242V20.4286C1.73242 18.3827 2.54517 16.4205 3.99188 14.9738C5.43859 13.5271 7.40075 12.7144 9.44671 12.7144C11.4927 12.7144 13.4548 13.5271 14.9015 14.9738C16.3482 16.4205 17.161 18.3827 17.161 20.4286V22.1429Z" stroke="#9197B3" stroke-width="1.5" stroke-linecap="round" stroke-linejoin="round"/>
<path d="M16.3047 1.57129C17.3277 1.57129 18.3087 1.97767 19.0321 2.70102C19.7555 3.42437 20.1618 4.40545 20.1618 5.42843C20.1618 6.45141 19.7555 7.43249 19.0321 8.15584C18.3087 8.8792 17.3277 9.28557 16.3047 9.28557" stroke="#9197B3" stroke-width="1.5" stroke-linecap="round" stroke-linejoin="round"/>
<path d="M19.0469 13.04C20.5072 13.5956 21.7644 14.5814 22.6521 15.8671C23.5398 17.1527 24.0162 18.6777 24.0183 20.24V22.1429H21.4469" stroke="#9197B3" stroke-width="1.5" stroke-linecap="round" stroke-linejoin="round"/>
</svg>
