<svg width="25" height="24" viewBox="0 0 25 24" fill="none" xmlns="http://www.w3.org/2000/svg">
<path d="M15.3756 22.7498H9.37563C8.05563 22.7498 6.95563 22.6198 6.02563 22.3398C5.68563 22.2398 5.46563 21.9098 5.48563 21.5598C5.73563 18.5698 8.76563 16.2197 12.3756 16.2197C15.9856 16.2197 19.0056 18.5598 19.2656 21.5598C19.2956 21.9198 19.0756 22.2398 18.7256 22.3398C17.7956 22.6198 16.6956 22.7498 15.3756 22.7498ZM7.09563 21.0598C7.75563 21.1898 8.50563 21.2498 9.37563 21.2498H15.3756C16.2456 21.2498 16.9956 21.1898 17.6556 21.0598C17.1256 19.1398 14.9356 17.7197 12.3756 17.7197C9.81563 17.7197 7.62563 19.1398 7.09563 21.0598Z" fill="#9197B3"/>
<path d="M15.375 2H9.375C4.375 2 2.375 4 2.375 9V15C2.375 18.78 3.515 20.85 6.235 21.62C6.455 19.02 9.125 16.97 12.375 16.97C15.625 16.97 18.295 19.02 18.515 21.62C21.235 20.85 22.375 18.78 22.375 15V9C22.375 4 20.375 2 15.375 2ZM12.375 14.17C10.395 14.17 8.795 12.56 8.795 10.58C8.795 8.60002 10.395 7 12.375 7C14.355 7 15.955 8.60002 15.955 10.58C15.955 12.56 14.355 14.17 12.375 14.17Z" stroke="#9197B3" stroke-width="1.5" stroke-linecap="round" stroke-linejoin="round"/>
<path d="M12.3749 14.92C9.98492 14.92 8.04492 12.97 8.04492 10.58C8.04492 8.19002 9.98492 6.25 12.3749 6.25C14.7649 6.25 16.7049 8.19002 16.7049 10.58C16.7049 12.97 14.7649 14.92 12.3749 14.92ZM12.3749 7.75C10.8149 7.75 9.54492 9.02002 9.54492 10.58C9.54492 12.15 10.8149 13.42 12.3749 13.42C13.9349 13.42 15.2049 12.15 15.2049 10.58C15.2049 9.02002 13.9349 7.75 12.3749 7.75Z" fill="#9197B3"/>
</svg>
