<svg width="18" height="19" viewBox="0 0 18 19" fill="none" xmlns="http://www.w3.org/2000/svg">
<path fill-rule="evenodd" clip-rule="evenodd" d="M8.99979 0.5C13.9623 0.5 17.9998 4.53745 17.9998 9.5C17.9998 14.4626 13.9623 18.5 8.99979 18.5C4.03723 18.5 -0.000213623 14.4626 -0.000213623 9.5C-0.000213623 4.53745 4.03723 0.5 8.99979 0.5ZM8.99979 1.80296C4.7556 1.80296 1.30275 5.25668 1.30275 9.5C1.30275 13.7442 4.7556 17.197 8.99979 17.197C13.244 17.197 16.6968 13.7442 16.6968 9.5C16.6968 5.25668 13.244 1.80296 8.99979 1.80296ZM12.3628 6.1374C12.5339 6.30939 12.5965 6.56217 12.5235 6.79236L11.1406 11.2129C11.0772 11.417 10.9165 11.5768 10.7133 11.6402L6.29275 13.024C6.22847 13.044 6.16245 13.0535 6.09817 13.0535C5.92792 13.0535 5.76114 12.9866 5.63693 12.8633C5.4658 12.6913 5.40326 12.4385 5.47623 12.2083L6.85997 7.78782C6.92338 7.58282 7.08321 7.42386 7.28648 7.36045L11.707 5.9767C11.9389 5.90287 12.1908 5.96628 12.3628 6.1374ZM10.9087 7.59151L8.00137 8.50184L7.0919 11.4092L9.99838 10.4989L10.9087 7.59151Z" fill="#04009A"/>
</svg>
