<svg width="24" height="19" viewBox="0 0 24 19" fill="none" xmlns="http://www.w3.org/2000/svg">
<path d="M9.42885 4.42871H4.28599C3.37668 4.42871 2.50461 4.78993 1.86163 5.43292C1.21865 6.0759 0.857422 6.94797 0.857422 7.85728V14.7144H3.42885" stroke="#9197B3" stroke-width="1.5" stroke-linecap="round" stroke-linejoin="round"/>
<path d="M21.4297 14.7143H23.144V2.71429C23.144 2.25963 22.9634 1.82359 22.6419 1.5021C22.3204 1.18061 21.8843 1 21.4297 1H11.144C10.6893 1 10.2533 1.18061 9.93179 1.5021C9.6103 1.82359 9.42969 2.25963 9.42969 2.71429V12.4514" stroke="#9197B3" stroke-width="1.5" stroke-linecap="round" stroke-linejoin="round"/>
<path d="M10.2852 14.7144H14.5709" stroke="#9197B3" stroke-width="1.5" stroke-linecap="round" stroke-linejoin="round"/>
<path d="M6.85826 18.1428C8.75181 18.1428 10.2868 16.6078 10.2868 14.7142C10.2868 12.8207 8.75181 11.2856 6.85826 11.2856C4.96471 11.2856 3.42969 12.8207 3.42969 14.7142C3.42969 16.6078 4.96471 18.1428 6.85826 18.1428Z" stroke="#9197B3" stroke-width="1.5" stroke-linecap="round" stroke-linejoin="round"/>
<path d="M18.0008 18.1428C19.8944 18.1428 21.4294 16.6078 21.4294 14.7142C21.4294 12.8207 19.8944 11.2856 18.0008 11.2856C16.1073 11.2856 14.5723 12.8207 14.5723 14.7142C14.5723 16.6078 16.1073 18.1428 18.0008 18.1428Z" stroke="#9197B3" stroke-width="1.5" stroke-linecap="round" stroke-linejoin="round"/>
</svg>
