<svg width="20" height="20" viewBox="0 0 20 20" fill="none" xmlns="http://www.w3.org/2000/svg">
<path d="M18.5711 9.28564H12.8569C12.4624 9.28564 12.1426 9.60544 12.1426 9.99993V18.5714C12.1426 18.9658 12.4624 19.2856 12.8569 19.2856H18.5711C18.9656 19.2856 19.2854 18.9658 19.2854 18.5714V9.99993C19.2854 9.60544 18.9656 9.28564 18.5711 9.28564Z" stroke="#9197B3" stroke-width="1.5" stroke-linecap="round" stroke-linejoin="round"/>
<path d="M18.5711 0.714355H12.8569C12.4624 0.714355 12.1426 1.03415 12.1426 1.42864V4.30007C12.1426 4.69456 12.4624 5.01436 12.8569 5.01436H18.5711C18.9656 5.01436 19.2854 4.69456 19.2854 4.30007V1.42864C19.2854 1.03415 18.9656 0.714355 18.5711 0.714355Z" stroke="#9197B3" stroke-width="1.5" stroke-linecap="round" stroke-linejoin="round"/>
<path d="M7.14342 0.714355H1.42913C1.03464 0.714355 0.714844 1.03415 0.714844 1.42864V10.0001C0.714844 10.3946 1.03464 10.7144 1.42913 10.7144H7.14342C7.5379 10.7144 7.8577 10.3946 7.8577 10.0001V1.42864C7.8577 1.03415 7.5379 0.714355 7.14342 0.714355Z" stroke="#9197B3" stroke-width="1.5" stroke-linecap="round" stroke-linejoin="round"/>
<path d="M7.14342 14.9858H1.42913C1.03464 14.9858 0.714844 15.3056 0.714844 15.7001V18.5716C0.714844 18.966 1.03464 19.2858 1.42913 19.2858H7.14342C7.5379 19.2858 7.8577 18.966 7.8577 18.5716V15.7001C7.8577 15.3056 7.5379 14.9858 7.14342 14.9858Z" stroke="#9197B3" stroke-width="1.5" stroke-linecap="round" stroke-linejoin="round"/>
</svg>
