<svg width="25" height="24" viewBox="0 0 25 24" fill="none" xmlns="http://www.w3.org/2000/svg">
<path d="M11.0016 16.8604V18.8904C11.0016 20.6104 9.40158 22.0004 7.43158 22.0004C5.46158 22.0004 3.85156 20.6104 3.85156 18.8904V16.8604C3.85156 18.5804 5.45158 19.8004 7.43158 19.8004C9.40158 19.8004 11.0016 18.5704 11.0016 16.8604Z" stroke="#9197B3" stroke-width="1.5" stroke-linecap="round" stroke-linejoin="round"/>
<path d="M10.9999 14.1098C10.9999 14.6098 10.8599 15.0698 10.6199 15.4698C10.0298 16.4398 8.81979 17.0498 7.41979 17.0498C6.01979 17.0498 4.80978 16.4298 4.21978 15.4698C3.97978 15.0698 3.83984 14.6098 3.83984 14.1098C3.83984 13.2498 4.23982 12.4798 4.87982 11.9198C5.52982 11.3498 6.41978 11.0098 7.40978 11.0098C8.39978 11.0098 9.28981 11.3598 9.93981 11.9198C10.5999 12.4698 10.9999 13.2498 10.9999 14.1098Z" stroke="#9197B3" stroke-width="1.5" stroke-linecap="round" stroke-linejoin="round"/>
<path d="M11.0016 14.11V16.86C11.0016 18.58 9.40158 19.8 7.43158 19.8C5.46158 19.8 3.85156 18.57 3.85156 16.86V14.11C3.85156 12.39 5.45158 11 7.43158 11C8.42158 11 9.31161 11.35 9.96161 11.91C10.6016 12.47 11.0016 13.25 11.0016 14.11Z" stroke="#9197B3" stroke-width="1.5" stroke-linecap="round" stroke-linejoin="round"/>
<path d="M22.2502 10.9697V13.0298C22.2502 13.5798 21.8102 14.0297 21.2502 14.0497H19.2901C18.2101 14.0497 17.2202 13.2597 17.1302 12.1797C17.0702 11.5497 17.3101 10.9597 17.7301 10.5497C18.1001 10.1697 18.6102 9.94971 19.1702 9.94971H21.2502C21.8102 9.96971 22.2502 10.4197 22.2502 10.9697Z" stroke="#9197B3" stroke-width="1.5" stroke-linecap="round" stroke-linejoin="round"/>
<path d="M2.25 10.5V8.5C2.25 5.78 3.89 3.88 6.44 3.56C6.7 3.52 6.97 3.5 7.25 3.5H16.25C16.51 3.5 16.76 3.50999 17 3.54999C19.58 3.84999 21.25 5.76 21.25 8.5V9.95001H19.17C18.61 9.95001 18.1 10.17 17.73 10.55C17.31 10.96 17.07 11.55 17.13 12.18C17.22 13.26 18.21 14.05 19.29 14.05H21.25V15.5C21.25 18.5 19.25 20.5 16.25 20.5H13.75" stroke="#9197B3" stroke-width="1.5" stroke-linecap="round" stroke-linejoin="round"/>
</svg>
