<svg width="24" height="23" viewBox="0 0 24 23" fill="none" xmlns="http://www.w3.org/2000/svg">
<path d="M21.4484 6.71436H2.59124C1.64446 6.71436 0.876953 7.48187 0.876953 8.42864V20.4286C0.876953 21.3754 1.64446 22.1429 2.59124 22.1429H21.4484C22.3952 22.1429 23.1627 21.3754 23.1627 20.4286V8.42864C23.1627 7.48187 22.3952 6.71436 21.4484 6.71436Z" stroke="#9197B3" stroke-width="1.5" stroke-linecap="round" stroke-linejoin="round"/>
<path d="M0.876953 13.5713H23.1627" stroke="#9197B3" stroke-width="1.5" stroke-linecap="round" stroke-linejoin="round"/>
<path d="M12.0195 11.8569V15.2855" stroke="#9197B3" stroke-width="1.5" stroke-linecap="round" stroke-linejoin="round"/>
<path d="M17.1627 6.71415C17.1627 5.35018 16.6208 4.04207 15.6564 3.0776C14.6919 2.11312 13.3838 1.57129 12.0198 1.57129V1.57129C10.6558 1.57129 9.34773 2.11312 8.38326 3.0776C7.41879 4.04207 6.87695 5.35018 6.87695 6.71415" stroke="#9197B3" stroke-width="1.5" stroke-linecap="round" stroke-linejoin="round"/>
</svg>
