<svg width="19" height="18" viewBox="0 0 19 18" fill="none" xmlns="http://www.w3.org/2000/svg">
<path fill-rule="evenodd" clip-rule="evenodd" d="M7.83298 11.4536C10.7707 11.4536 14.6766 11.7844 14.6766 14.6464C14.6766 17.6613 10.1254 17.8422 8.17318 17.853L7.46439 17.853C5.38286 17.8422 0.98938 17.6623 0.98938 14.6645C0.98938 11.6463 5.54056 11.4652 7.49278 11.4543L7.72733 11.4536C7.76388 11.4536 7.79912 11.4536 7.83298 11.4536ZM7.83298 12.8057C5.32793 12.8057 2.34151 13.1275 2.34151 14.6645C2.34151 15.8832 4.18943 16.5016 7.83298 16.5016C11.4765 16.5016 13.3244 15.8769 13.3244 14.6464C13.3244 13.425 11.4765 12.8057 7.83298 12.8057ZM16.0492 11.0325C18.4884 11.3976 18.9995 12.5271 18.9995 13.4096C18.9995 14.0667 18.7156 14.9564 17.3607 15.4693C17.2823 15.4991 17.2012 15.5135 17.121 15.5135C16.8478 15.5135 16.5909 15.3468 16.4891 15.0772C16.3566 14.7284 16.5323 14.3372 16.8812 14.2056C17.6474 13.9153 17.6474 13.561 17.6474 13.4096C17.6474 12.8985 17.0425 12.5487 15.85 12.3712C15.4804 12.3153 15.2253 11.9709 15.2803 11.6022C15.3362 11.2327 15.6868 10.9848 16.0492 11.0325ZM7.83298 0.675293C10.3849 0.675293 12.4618 2.75217 12.4618 5.3041C12.4672 6.53364 11.9903 7.69467 11.1214 8.56905C10.2542 9.44433 9.09587 9.92839 7.86363 9.9329H7.83298C5.28015 9.9329 3.20327 7.85602 3.20327 5.3041C3.20327 2.75217 5.28015 0.675293 7.83298 0.675293ZM14.2219 1.68831C15.9932 1.97857 17.2786 3.49386 17.2786 5.2904C17.275 7.09775 15.9256 8.65 14.139 8.90059C14.1074 8.9051 14.0759 8.9069 14.0443 8.9069C13.7126 8.9069 13.4232 8.66262 13.3755 8.32458C13.3241 7.955 13.581 7.61246 13.9506 7.56108C15.0755 7.40333 15.9247 6.42709 15.9265 5.28949C15.9265 4.15911 15.117 3.20541 14.0038 3.02332C13.6351 2.96202 13.3854 2.61497 13.4458 2.24629C13.5062 1.87761 13.855 1.62972 14.2219 1.68831ZM7.83298 2.02743C6.02563 2.02743 4.55541 3.49765 4.55541 5.3041C4.55541 7.11055 6.02563 8.58077 7.83298 8.58077H7.86092C8.72989 8.57716 9.54839 8.23552 10.1623 7.61625C10.777 6.99877 11.1133 6.17758 11.1097 5.3068C11.1097 3.49765 9.63943 2.02743 7.83298 2.02743Z" fill="black"/>
</svg>
