<svg width="23" height="23" viewBox="0 0 23 23" fill="none" xmlns="http://www.w3.org/2000/svg">
<path d="M8.38586 3.82692L9.1424 2.03385C9.26999 1.73026 9.49447 1.46912 9.78643 1.28465C10.0784 1.10018 10.4242 1.00096 10.7786 1H12.2214C12.5758 1.00096 12.9216 1.10018 13.2136 1.28465C13.5055 1.46912 13.73 1.73026 13.8576 2.03385L14.6141 3.82692L17.1829 5.18385L19.259 4.89308C19.6047 4.84999 19.9565 4.90224 20.2698 5.04318C20.583 5.18412 20.8436 5.40739 21.0184 5.68462L21.7221 6.81538C21.9025 7.09702 21.9855 7.42225 21.9604 7.74814C21.9353 8.07403 21.8031 8.38526 21.5814 8.64077L20.297 10.1431V12.8569L21.6166 14.3592C21.8383 14.6147 21.9705 14.926 21.9956 15.2519C22.0207 15.5777 21.9376 15.903 21.7573 16.1846L21.0536 17.3154C20.8788 17.5926 20.6182 17.8159 20.305 17.9568C19.9917 18.0978 19.6398 18.15 19.2942 18.1069L17.2181 17.8162L14.6493 19.1731L13.8928 20.9662C13.7652 21.2697 13.5407 21.5309 13.2488 21.7153C12.9568 21.8998 12.611 21.999 12.2565 22H10.7786C10.4242 21.999 10.0784 21.8998 9.78643 21.7153C9.49447 21.5309 9.26999 21.2697 9.1424 20.9662L8.38586 19.1731L5.81713 17.8162L3.74104 18.1069C3.39534 18.15 3.04351 18.0978 2.73023 17.9568C2.41695 17.8159 2.15639 17.5926 1.98164 17.3154L1.27788 16.1846C1.09754 15.903 1.01445 15.5777 1.03958 15.2519C1.06471 14.926 1.19687 14.6147 1.41863 14.3592L2.70299 12.8569V10.1431L1.38344 8.64077C1.16169 8.38526 1.02952 8.07403 1.00439 7.74814C0.979265 7.42225 1.06235 7.09702 1.24269 6.81538L1.94645 5.68462C2.1212 5.40739 2.38177 5.18412 2.69504 5.04318C3.00832 4.90224 3.36016 4.84999 3.70585 4.89308L5.78194 5.18385L8.38586 3.82692ZM7.9812 11.5C7.9812 12.139 8.18757 12.7636 8.57422 13.2949C8.96087 13.8262 9.51043 14.2403 10.1534 14.4848C10.7964 14.7294 11.5039 14.7934 12.1865 14.6687C12.8691 14.544 13.4961 14.2363 13.9882 13.7845C14.4803 13.3327 14.8154 12.757 14.9512 12.1303C15.087 11.5036 15.0173 10.854 14.751 10.2636C14.4846 9.67329 14.0336 9.16872 13.4549 8.81371C12.8763 8.45871 12.196 8.26923 11.5 8.26923C10.5668 8.26923 9.67173 8.60961 9.01183 9.2155C8.35193 9.82139 7.9812 10.6431 7.9812 11.5V11.5Z" stroke="#9197B3" stroke-width="1.5" stroke-linecap="round" stroke-linejoin="round"/>
</svg>
