<svg width="32" height="26" viewBox="0 0 32 26" fill="none" xmlns="http://www.w3.org/2000/svg">
<path d="M9.83119 11.2861H4.68834C3.77902 11.2861 2.90695 11.6474 2.26397 12.2903C1.62099 12.9333 1.25977 13.8054 1.25977 14.7147V21.5718H3.83119" stroke="#9197B3" stroke-width="1.5" stroke-linecap="round" stroke-linejoin="round"/>
<path d="M7.2606 24.9997C9.15415 24.9997 10.6892 23.4647 10.6892 21.5711C10.6892 19.6776 9.15415 18.1426 7.2606 18.1426C5.36705 18.1426 3.83203 19.6776 3.83203 21.5711C3.83203 23.4647 5.36705 24.9997 7.2606 24.9997Z" stroke="#9197B3" stroke-width="1.5" stroke-linecap="round" stroke-linejoin="round"/>
<path d="M28.6875 14.7143H30.4018V2.71429C30.4018 2.25963 30.2212 1.82359 29.8997 1.5021C29.5782 1.18061 29.1422 1 28.6875 1H18.4018C17.9471 1 17.5111 1.18061 17.1896 1.5021C16.8681 1.82359 16.6875 2.25963 16.6875 2.71429V12.4514" stroke="#9197B3" stroke-width="1.5" stroke-linecap="round" stroke-linejoin="round"/>
<path d="M24.998 17.7143H26.7123V5.71429C26.7123 5.25963 26.5317 4.82359 26.2102 4.5021C25.8887 4.18061 25.4527 4 24.998 4H14.7123C14.2577 4 13.8216 4.18061 13.5001 4.5021C13.1787 4.82359 12.998 5.25963 12.998 5.71429V15.4514" stroke="#9197B3" stroke-width="1.5" stroke-linecap="round" stroke-linejoin="round"/>
<path d="M21.8301 21.5717H23.5444V9.57171C23.5444 9.11705 23.3638 8.68102 23.0423 8.35952C22.7208 8.03803 22.2847 7.85742 21.8301 7.85742H11.5444C11.0897 7.85742 10.6537 8.03803 10.3322 8.35952C10.0107 8.68102 9.83008 9.11705 9.83008 9.57171V19.3089" stroke="#9197B3" stroke-width="1.5" stroke-linecap="round" stroke-linejoin="round"/>
<path d="M10.6875 21.5713H14.9732" stroke="#9197B3" stroke-width="1.5" stroke-linecap="round" stroke-linejoin="round"/>
<path d="M18.4012 24.9997C20.2948 24.9997 21.8298 23.4647 21.8298 21.5711C21.8298 19.6776 20.2948 18.1426 18.4012 18.1426C16.5077 18.1426 14.9727 19.6776 14.9727 21.5711C14.9727 23.4647 16.5077 24.9997 18.4012 24.9997Z" stroke="#9197B3" stroke-width="1.5" stroke-linecap="round" stroke-linejoin="round"/>
</svg>
